<svg width="107" height="107" viewBox="0 0 107 107" fill="none" xmlns="http://www.w3.org/2000/svg">
<path d="M49.2679 11.2319C50.5814 10.5025 52.059 10.1198 53.5614 10.1198C55.0639 10.1198 56.5415 10.5025 57.855 11.2319L91.0845 29.6884C91.7734 30.0715 92.3474 30.6318 92.747 31.3113C93.1466 31.9907 93.3573 32.7647 93.3573 33.553V69.9661C93.3569 71.5431 92.9348 73.0914 92.1348 74.4504C91.3348 75.8094 90.1859 76.9297 88.8073 77.6954L57.855 94.896C56.5415 95.6254 55.0639 96.0082 53.5614 96.0082C52.059 96.0082 50.5814 95.6254 49.2679 94.896L18.3156 77.6954C16.9376 76.9301 15.7892 75.8104 14.9892 74.4523C14.1892 73.0941 13.7668 71.5468 13.7656 69.9706V33.553C13.7656 32.7647 13.9763 31.9907 14.3759 31.3113C14.7755 30.6318 15.3495 30.0715 16.0384 29.6884L49.2723 11.2319H49.2679Z" stroke="white" stroke-width="6.69456" stroke-linecap="round" stroke-linejoin="round"/>
<path d="M33.6639 19.8983L73.4597 42.0071V57.4833M27.0312 54.5118L40.2965 61.905" stroke="white" stroke-width="6.69456" stroke-linecap="round" stroke-linejoin="round"/>
<path d="M13.7656 30.9528L53.5614 53.0615M53.5614 53.0615L93.3573 30.9528M53.5614 53.0615V97.2791" stroke="white" stroke-width="6.69456" stroke-linejoin="round"/>
</svg>
