<svg width="120" height="79" viewBox="0 0 120 79" fill="none" xmlns="http://www.w3.org/2000/svg">
<g clip-path="url(#clip0_117_537)">
<path d="M0.15625 21.1501C0.689237 19.1526 1.93599 17.6113 3.31053 16.1254C6.55833 12.5927 9.7469 9.00756 12.9729 5.45325C14.3633 3.87519 16.2241 2.77402 18.2874 2.30816C20.3508 1.84231 22.5103 2.03578 24.4555 2.86074C26.2508 3.59749 28.0212 4.40206 29.8227 5.11416C31.3136 5.73902 32.9163 6.06103 34.5355 6.06103C36.1547 6.06103 37.7573 5.73902 39.2482 5.11416C40.8191 4.46988 42.3962 3.78862 43.9672 3.12276C48.4866 1.19302 52.9687 1.16527 57.3199 3.54817C58.8783 4.40823 60.0627 4.55312 61.7864 3.54817C65.1464 1.58143 68.8492 1.58143 72.4368 3.19058C75.242 4.45447 77.9568 5.85708 80.7339 7.14871C83.6607 8.51125 86.5406 8.38178 89.3053 6.69556C92.1573 4.96619 94.9843 3.19675 97.8331 1.45504C101.508 -0.786049 105.937 -0.110946 108.639 3.21832C111.862 7.17646 115.021 11.1839 118.115 15.2407C118.903 16.2795 119.28 17.6267 119.845 18.832V21.6064C119.343 24.1372 117.734 25.9838 116.036 27.8179C111.248 32.9845 106.514 38.2034 101.629 43.5395C104.435 45.7775 106.616 48.4039 105.554 52.2172C104.575 55.7622 102.081 57.9386 98.497 58.8603C99.5162 64.5848 93.5287 69.9579 88.4388 68.5768C87.4196 72.0757 85.3905 74.7144 81.7033 75.6885C77.829 76.712 75.2077 74.4555 72.8918 72.0849C71.9038 73.3765 71.0778 74.6836 70.0274 75.7841C67.0352 78.9037 62.5718 79.0116 59.3521 76.1201C57.4227 74.3846 55.5183 72.6213 53.8508 71.0985C52.2923 72.4795 50.6996 73.7773 49.2253 75.183C47.6981 76.6411 45.9526 77.5474 43.8207 77.5474C40.1801 77.5474 37.8581 75.4697 36.0846 72.5966C35.899 72.2593 35.7315 71.9125 35.5827 71.5578C30.256 74.4863 25.0414 71.1663 23.1775 66.2124C19.7272 67.39 16.8191 66.4837 14.3256 63.9189C11.7542 61.2894 11.2087 58.3547 12.6051 55.3091C11.1744 54.2332 9.71261 53.3423 8.50638 52.1925C5.45495 49.2856 5.41755 44.9174 8.31313 41.8348C9.88716 40.1424 11.5204 38.4901 13.2035 36.7453C11.5111 35.3119 9.86222 33.9124 8.21651 32.519C6.91365 31.4185 5.64196 30.2779 4.29235 29.236C2.3817 27.7594 0.804561 26.0762 0.159366 23.6872L0.15625 21.1501ZM79.0695 39.3532C79.6149 39.8465 80.07 40.2626 80.5251 40.6788C85.2731 45.0212 90.0212 49.3637 94.7692 53.7061C96.6113 55.3831 98.4721 55.2875 100.183 53.5026C100.37 53.3084 100.56 53.1142 100.738 52.9108C102.125 51.3263 102.047 49.4305 100.507 47.9785C91.0882 39.0388 81.3168 30.4968 70.3734 23.3635C67.9266 21.7667 65.4425 21.6465 62.8929 23.0552C61.7022 23.7118 60.5677 24.4609 59.3801 25.1206C55.2222 27.4388 50.5781 25.9591 47.7292 21.4214C45.5474 17.9503 46.5885 13.9121 50.3505 11.2887C52.1895 10.0033 54.0347 8.72703 55.9609 7.37991C52.816 5.49949 49.6274 5.28062 46.3516 6.51369C44.3848 7.23811 42.496 8.16599 40.5448 8.92741C38.5925 9.71534 36.5015 10.1123 34.393 10.0954C32.2845 10.0785 30.2003 9.64794 28.2612 8.82876C26.3911 8.07043 24.5646 7.19804 22.6726 6.49519C20.3599 5.63821 18.1064 5.96806 16.4388 7.756C12.549 11.8621 8.79625 16.0884 5.04664 20.3178C3.79989 21.7359 3.99002 23.567 5.39885 24.8586C6.05339 25.4597 6.75157 26.0177 7.43417 26.591L16.0617 33.8661C18.5552 30.9592 21.2201 28.2064 25.4653 29.3192C29.3708 30.3426 31.6991 33.0338 32.3755 37.1029C35.3303 36.9056 37.5027 38.336 39.3853 40.389C41.3677 42.5469 41.6949 45.0654 41.0435 47.7874C45.3791 48.9526 47.0934 52.2018 48.1251 55.9719C48.2153 55.9967 48.3068 56.0163 48.3994 56.0304C54.3214 56.3387 57.9994 61.5021 56.3038 67.1033C56.2715 67.2718 56.2784 67.4454 56.3237 67.6109C56.3691 67.7764 56.4518 67.9296 56.5656 68.059C58.4357 69.8161 60.3059 71.5393 62.2103 73.2563C62.6627 73.6891 63.2309 73.985 63.8477 74.109C64.4646 74.233 65.1044 74.1799 65.6918 73.9561C69.0238 72.834 69.7936 69.255 67.2316 66.9245C65.0872 64.9855 62.949 63.025 60.7672 61.0151L63.5131 58.0927C63.8747 58.401 64.1365 58.6384 64.3921 58.8696C68.7142 62.8154 73.0342 66.7642 77.3521 70.7162C78.3994 71.6749 79.5807 72.2113 80.9677 71.7612C81.7515 71.5055 82.4593 71.0621 83.0281 70.4705C83.5969 69.8789 84.0091 69.1574 84.2279 68.3703C84.6923 66.8906 83.9599 65.7192 82.8409 64.705C78.2747 60.5712 73.7396 56.4003 69.1048 52.1648L71.8601 49.2609C72.2217 49.5692 72.5147 49.8189 72.7952 50.0778C77.6596 54.5333 82.5188 58.9816 87.3729 63.4226C89.4331 65.3031 91.2378 65.2414 93.1204 63.2408C95.0684 61.1723 95.0061 59.4398 92.8835 57.4854C89.8913 54.7295 86.8918 51.9808 83.8851 49.2393L76.2986 42.2725L79.0695 39.3532ZM98.6747 40.799L114.284 23.7365C116.192 21.6526 116.285 19.3869 114.54 17.1735C111.618 13.4743 108.693 9.77514 105.766 6.07595C104.123 3.99515 101.997 3.60982 99.7064 5.03093C96.9012 6.75413 94.1209 8.53591 91.2908 10.2067C87.3635 12.5156 83.2679 12.716 79.1349 10.8232C76.311 9.53778 73.5433 8.12592 70.7194 6.81579C68.2508 5.6752 65.6949 5.72144 63.4508 7.16413C59.5516 9.66108 55.8207 12.3707 52.0399 15.0311C51.599 15.3232 51.2427 15.7238 51.0061 16.1936C50.7694 16.6633 50.6606 17.1859 50.6903 17.7099C50.8025 21.0083 54.6612 23.1539 57.5474 21.5231C58.763 20.8357 59.9162 20.0404 61.1568 19.3992C64.7817 17.5219 68.603 17.3461 71.9287 19.6427C78.1781 23.9584 84.2373 28.5485 90.231 33.2064C93.1827 35.5092 95.8258 38.2127 98.6747 40.799ZM20.7962 62.8061C21.3417 62.4793 22.3298 62.1248 22.9781 61.4559C27.4165 56.9706 31.7801 52.4453 36.1594 47.886C37.7926 46.1844 37.6804 44.3102 35.91 42.6455C33.8279 40.6726 32.0139 40.5647 30.2466 42.3773C25.8705 46.8595 21.5069 51.354 17.1557 55.8609C15.9308 57.1248 15.5599 58.5705 16.2892 59.8437C17.1775 61.385 18.4149 62.578 20.7962 62.8061ZM15.0986 51.2924C15.5879 50.9995 16.4887 50.6758 17.0996 50.0593C20.4066 46.7455 23.6451 43.3638 26.9022 40.0006C28.4981 38.3545 28.657 37.1245 27.3604 35.2811C25.4622 32.5868 22.8098 32.4758 20.8149 34.6429C17.8196 37.926 14.6653 41.0672 11.5547 44.2485C10.3952 45.4322 9.78742 46.7917 10.604 48.3145C11.4456 49.8836 12.7235 51.0519 15.0986 51.2924ZM44.1012 56.0058C43.9578 54.3627 42.8825 53.4811 41.8508 52.5994C40.364 51.3232 38.4877 51.3448 37.1225 52.7258C34.0534 55.8393 31.0113 58.9816 27.9962 62.1526C26.6965 63.5182 26.7495 65.3709 28.0492 66.7303C28.4224 67.1234 28.82 67.4931 29.2399 67.837C30.6362 68.9776 32.5469 68.9961 33.803 67.7291C36.9386 64.5704 40.0295 61.3686 43.0757 58.1236C43.59 57.5748 43.7677 56.7209 44.1012 56.0058ZM52.9999 64.4677C52.8721 62.7506 51.7781 61.832 50.7059 60.9319C49.2097 59.6772 47.3396 59.7173 45.9682 61.0891C44.0482 62.9983 42.1614 64.9465 40.3079 66.9338C38.9053 68.435 38.9864 70.3247 40.4295 71.789C40.7412 72.0972 41.0529 72.387 41.3646 72.6614C42.8856 73.9499 44.7713 73.916 46.1926 72.4949C48.0814 70.6052 49.9578 68.7001 51.7531 66.7242C52.3142 66.0891 52.5916 65.2167 52.9999 64.4677Z" fill="white" stroke="white" stroke-miterlimit="10"/>
</g>
<defs>
<clipPath id="clip0_117_537">
<rect width="120" height="78.3673" fill="white"/>
</clipPath>
</defs>
</svg>
