<svg width="92" height="92" viewBox="0 0 92 92" fill="none" xmlns="http://www.w3.org/2000/svg">
<path d="M20.2188 58.0312L6.46875 54.5938C6.46875 54.5938 6.46875 44.2812 9.90625 33.9688C13.3438 23.6562 37.4062 23.6562 37.4062 23.6562M33.9688 71.7812L37.4062 85.5312C37.4062 85.5312 47.7188 85.5312 58.0312 82.0938C68.3438 78.6562 68.3438 54.5938 68.3438 54.5938M20.2188 58.0312L33.9688 71.7812C33.9688 71.7812 68.3438 58.0312 78.6562 40.8438C88.9688 23.6562 88.9688 3.03125 88.9688 3.03125C88.9688 3.03125 68.3438 3.03125 51.1562 13.3438C33.9688 23.6562 20.2188 58.0312 20.2188 58.0312Z" stroke="white" stroke-width="5" stroke-linecap="round" stroke-linejoin="round"/>
<path d="M3.03125 88.9688L16.7812 82.0938L9.90625 75.2188L3.03125 88.9688Z" fill="white" stroke="white" stroke-width="5" stroke-linecap="round" stroke-linejoin="round"/>
<path d="M61.4688 33.9688C63.3672 33.9688 64.9062 32.4297 64.9062 30.5312C64.9062 28.6328 63.3672 27.0938 61.4688 27.0938C59.5703 27.0938 58.0312 28.6328 58.0312 30.5312C58.0312 32.4297 59.5703 33.9688 61.4688 33.9688Z" fill="white" stroke="white" stroke-width="5" stroke-linecap="round" stroke-linejoin="round"/>
</svg>
