<svg width="45" height="45" viewBox="0 0 45 45" fill="none" xmlns="http://www.w3.org/2000/svg">
<path fill-rule="evenodd" clip-rule="evenodd" d="M13.7974 1.12782C16.1384 1.02004 16.8849 0.996094 22.8483 0.996094C28.8118 0.996094 29.5582 1.02204 31.8973 1.12782C34.2363 1.23359 35.833 1.60681 37.23 2.14767C38.693 2.70051 40.0202 3.56469 41.1178 4.68233C42.2355 5.77803 43.0977 7.10324 43.6485 8.56815C44.1914 9.96521 44.5626 11.5619 44.6704 13.8969C44.7781 16.242 44.8021 16.9884 44.8021 22.9499C44.8021 28.9133 44.7761 29.6597 44.6704 32.0008C44.5646 34.3359 44.1914 35.9325 43.6485 37.3296C43.0977 38.7947 42.2341 40.1221 41.1178 41.2194C40.0202 42.3371 38.693 43.1992 37.23 43.7501C35.833 44.2929 34.2363 44.6642 31.9013 44.7719C29.5582 44.8797 28.8118 44.9037 22.8483 44.9037C16.8849 44.9037 16.1384 44.8777 13.7974 44.7719C11.4623 44.6662 9.86564 44.2929 8.46859 43.7501C7.00351 43.1992 5.67611 42.3356 4.57877 41.2194C3.46189 40.1231 2.59758 38.7963 2.04611 37.3316C1.50525 35.9345 1.13403 34.3379 1.02625 32.0028C0.918481 29.6578 0.894531 28.9113 0.894531 22.9499C0.894531 16.9864 0.920477 16.24 1.02625 13.9009C1.13203 11.5618 1.50525 9.96521 2.04611 8.56815C2.59839 7.1034 3.46336 5.77666 4.58077 4.68034C5.67654 3.56369 7.00262 2.69939 8.46659 2.14767C9.86365 1.60681 11.4603 1.23559 13.7954 1.12782H13.7974ZM31.7196 5.0795C29.4045 4.97372 28.71 4.95177 22.8483 4.95177C16.9867 4.95177 16.2921 4.97372 13.977 5.0795C11.8355 5.17729 10.6739 5.53454 9.89957 5.8359C8.87573 6.23506 8.14327 6.70807 7.37489 7.47645C6.64651 8.18506 6.08596 9.04771 5.73434 10.0011C5.43298 10.7755 5.07573 11.9371 4.97793 14.0786C4.87216 16.3937 4.8502 17.0882 4.8502 22.9499C4.8502 28.8115 4.87216 29.5061 4.97793 31.8212C5.07573 33.9627 5.43298 35.1242 5.73434 35.8986C6.0856 36.8506 6.64642 37.7148 7.37489 38.4233C8.0834 39.1518 8.94758 39.7126 9.89957 40.0638C10.6739 40.3652 11.8355 40.7225 13.977 40.8203C16.2921 40.926 16.9847 40.948 22.8483 40.948C28.712 40.948 29.4045 40.926 31.7196 40.8203C33.8611 40.7225 35.0227 40.3652 35.7971 40.0638C36.8209 39.6647 37.5534 39.1917 38.3217 38.4233C39.0502 37.7148 39.611 36.8506 39.9623 35.8986C40.2636 35.1242 40.6209 33.9627 40.7187 31.8212C40.8245 29.5061 40.8464 28.8115 40.8464 22.9499C40.8464 17.0882 40.8245 16.3937 40.7187 14.0786C40.6209 11.9371 40.2636 10.7755 39.9623 10.0011C39.5631 8.97729 39.0901 8.24483 38.3217 7.47645C37.6131 6.74813 36.7505 6.18759 35.7971 5.8359C35.0227 5.53454 33.8611 5.17729 31.7196 5.0795ZM20.0442 29.7176C21.6102 30.3695 23.354 30.4575 24.9777 29.9665C26.6014 29.4756 28.0042 28.4362 28.9467 27.0258C29.8891 25.6154 30.3127 23.9216 30.145 22.2336C29.9774 20.5456 29.2289 18.9682 28.0274 17.7708C27.2615 17.0053 26.3354 16.4192 25.3158 16.0547C24.2962 15.6901 23.2084 15.5562 22.1308 15.6624C21.0532 15.7687 20.0126 16.1126 19.0838 16.6694C18.1551 17.2261 17.3614 17.9818 16.7597 18.8821C16.1581 19.7825 15.7636 20.805 15.6046 21.8761C15.4456 22.9471 15.526 24.0402 15.8401 25.0764C16.1543 26.1127 16.6942 27.0664 17.4212 27.869C18.1481 28.6715 19.044 29.3029 20.0442 29.7176ZM14.8691 14.9707C15.917 13.9228 17.1609 13.0916 18.53 12.5245C19.8991 11.9575 21.3664 11.6656 22.8483 11.6656C24.3302 11.6656 25.7976 11.9575 27.1666 12.5245C28.5357 13.0916 29.7797 13.9228 30.8275 14.9707C31.8754 16.0185 32.7066 17.2625 33.2736 18.6316C33.8407 20.0006 34.1326 21.468 34.1326 22.9499C34.1326 24.4317 33.8407 25.8991 33.2736 27.2682C32.7066 28.6373 31.8754 29.8812 30.8275 30.9291C28.7113 33.0453 25.8411 34.2342 22.8483 34.2342C19.8555 34.2342 16.9853 33.0453 14.8691 30.9291C12.7529 28.8129 11.564 25.9427 11.564 22.9499C11.564 19.9571 12.7529 17.0869 14.8691 14.9707ZM36.6353 13.3461C36.895 13.1011 37.1028 12.8066 37.2466 12.4799C37.3904 12.1531 37.4672 11.8009 37.4724 11.444C37.4776 11.087 37.4111 10.7327 37.2769 10.4019C37.1427 10.0711 36.9435 9.77064 36.6911 9.51823C36.4387 9.26582 36.1382 9.06662 35.8074 8.93242C35.4766 8.79822 35.1223 8.73176 34.7654 8.73696C34.4084 8.74217 34.0562 8.81893 33.7295 8.96271C33.4027 9.1065 33.1082 9.31437 32.8632 9.57403C32.3869 10.079 32.126 10.7498 32.1362 11.444C32.1463 12.1381 32.4265 12.801 32.9174 13.2919C33.4083 13.7828 34.0712 14.063 34.7654 14.0732C35.4595 14.0833 36.1303 13.8225 36.6353 13.3461Z" fill="#312783"/>
</svg>
