<svg width="44" height="45" viewBox="0 0 44 45" fill="none" xmlns="http://www.w3.org/2000/svg">
<path fill-rule="evenodd" clip-rule="evenodd" d="M12.9497 1.12782C15.2908 1.02004 16.0372 0.996094 22.0007 0.996094C27.9641 0.996094 28.7105 1.02204 31.0496 1.12782C33.3887 1.23359 34.9853 1.60681 36.3824 2.14767C37.8453 2.70051 39.1725 3.56469 40.2702 4.68233C41.3878 5.77803 42.25 7.10324 42.8009 8.56815C43.3437 9.96521 43.7149 11.5619 43.8227 13.8969C43.9305 16.242 43.9544 16.9884 43.9544 22.9499C43.9544 28.9133 43.9285 29.6597 43.8227 32.0008C43.7169 34.3359 43.3437 35.9325 42.8009 37.3296C42.25 38.7947 41.3864 40.1221 40.2702 41.2194C39.1725 42.3371 37.8453 43.1992 36.3824 43.7501C34.9853 44.2929 33.3887 44.6642 31.0536 44.7719C28.7105 44.8797 27.9641 44.9037 22.0007 44.9037C16.0372 44.9037 15.2908 44.8777 12.9497 44.7719C10.6146 44.6662 9.01799 44.2929 7.62093 43.7501C6.15585 43.1992 4.82845 42.3356 3.73112 41.2194C2.61423 40.1231 1.74992 38.7963 1.19845 37.3316C0.657589 35.9345 0.286371 34.3379 0.178598 32.0028C0.0708245 29.6578 0.046875 28.9113 0.046875 22.9499C0.046875 16.9864 0.0728203 16.24 0.178598 13.9009C0.284375 11.5618 0.657589 9.96521 1.19845 8.56815C1.75073 7.1034 2.6157 5.77666 3.73311 4.68034C4.82889 3.56369 6.15496 2.69939 7.61893 2.14767C9.01599 1.60681 10.6126 1.23559 12.9477 1.12782H12.9497ZM30.872 5.0795C28.5569 4.97372 27.8623 4.95177 22.0007 4.95177C16.139 4.95177 15.4445 4.97372 13.1293 5.0795C10.9878 5.17729 9.82629 5.53454 9.05192 5.8359C8.02807 6.23506 7.29561 6.70807 6.52723 7.47645C5.79886 8.18506 5.23831 9.04771 4.88669 10.0011C4.58532 10.7755 4.22807 11.9371 4.13028 14.0786C4.0245 16.3937 4.00255 17.0882 4.00255 22.9499C4.00255 28.8115 4.0245 29.5061 4.13028 31.8212C4.22807 33.9627 4.58532 35.1242 4.88669 35.8986C5.23795 36.8506 5.79877 37.7148 6.52723 38.4233C7.23574 39.1518 8.09992 39.7126 9.05192 40.0638C9.82629 40.3652 10.9878 40.7225 13.1293 40.8203C15.4445 40.926 16.137 40.948 22.0007 40.948C27.8643 40.948 28.5569 40.926 30.872 40.8203C33.0135 40.7225 34.175 40.3652 34.9494 40.0638C35.9732 39.6647 36.7057 39.1917 37.4741 38.4233C38.2025 37.7148 38.7634 36.8506 39.1146 35.8986C39.416 35.1242 39.7732 33.9627 39.871 31.8212C39.9768 29.5061 39.9988 28.8115 39.9988 22.9499C39.9988 17.0882 39.9768 16.3937 39.871 14.0786C39.7732 11.9371 39.416 10.7755 39.1146 10.0011C38.7155 8.97729 38.2425 8.24483 37.4741 7.47645C36.7654 6.74813 35.9028 6.18759 34.9494 5.8359C34.175 5.53454 33.0135 5.17729 30.872 5.0795ZM19.1966 29.7176C20.7626 30.3695 22.5063 30.4575 24.13 29.9665C25.7537 29.4756 27.1566 28.4362 28.099 27.0258C29.0415 25.6154 29.4651 23.9216 29.2974 22.2336C29.1297 20.5456 28.3812 18.9682 27.1798 17.7708C26.4138 17.0053 25.4877 16.4192 24.4681 16.0547C23.4485 15.6901 22.3608 15.5562 21.2832 15.6624C20.2056 15.7687 19.1649 16.1126 18.2362 16.6694C17.3074 17.2261 16.5137 17.9818 15.9121 18.8821C15.3105 19.7825 14.9159 20.805 14.7569 21.8761C14.5979 22.9471 14.6784 24.0402 14.9925 25.0764C15.3066 26.1127 15.8466 27.0664 16.5735 27.869C17.3005 28.6715 18.1963 29.3029 19.1966 29.7176ZM14.0215 14.9707C15.0693 13.9228 16.3133 13.0916 17.6823 12.5245C19.0514 11.9575 20.5188 11.6656 22.0007 11.6656C23.4825 11.6656 24.9499 11.9575 26.319 12.5245C27.688 13.0916 28.932 13.9228 29.9799 14.9707C31.0277 16.0185 31.8589 17.2625 32.426 18.6316C32.9931 20.0006 33.285 21.468 33.285 22.9499C33.285 24.4317 32.9931 25.8991 32.426 27.2682C31.8589 28.6373 31.0277 29.8812 29.9799 30.9291C27.8636 33.0453 24.9934 34.2342 22.0007 34.2342C19.0079 34.2342 16.1377 33.0453 14.0215 30.9291C11.9052 28.8129 10.7164 25.9427 10.7164 22.9499C10.7164 19.9571 11.9052 17.0869 14.0215 14.9707ZM35.7876 13.3461C36.0473 13.1011 36.2552 12.8066 36.399 12.4799C36.5427 12.1531 36.6195 11.8009 36.6247 11.444C36.6299 11.087 36.5634 10.7327 36.4292 10.4019C36.295 10.0711 36.0958 9.77064 35.8434 9.51823C35.591 9.26582 35.2905 9.06662 34.9598 8.93242C34.629 8.79822 34.2746 8.73176 33.9177 8.73696C33.5608 8.74217 33.2085 8.81893 32.8818 8.96271C32.5551 9.1065 32.2605 9.31437 32.0156 9.57403C31.5392 10.079 31.2784 10.7498 31.2885 11.444C31.2986 12.1381 31.5789 12.801 32.0698 13.2919C32.5607 13.7828 33.2235 14.063 33.9177 14.0732C34.6119 14.0833 35.2826 13.8225 35.7876 13.3461Z" fill="white"/>
</svg>
