<svg width="27" height="28" viewBox="0 0 27 28" fill="none" xmlns="http://www.w3.org/2000/svg">
<path fill-rule="evenodd" clip-rule="evenodd" d="M18.7287 27.6095C14.793 27.6095 10.1623 25.5204 6.27365 21.6343C0.0689581 15.4283 -1.55068 7.32752 2.58578 3.19106C3.80768 1.97046 5.2943 1.22715 7.00913 0.979383L8.00022 0.835938L11.6477 9.34098L8.00022 11.164C8.84524 12.7654 10.1258 14.4203 11.8067 16.1012C13.4094 17.7039 15.063 18.9753 16.723 19.8777L18.4366 16.5224L26.8907 17.73L26.9403 18.8084C27.0642 21.4935 26.2948 23.7456 24.7156 25.3235C23.1716 26.8675 21.0734 27.6095 18.7287 27.6095ZM6.42792 3.78789C5.67809 4.03957 5.00781 4.45817 4.43011 5.03717C1.43079 8.03519 3.12084 14.7915 8.11798 19.7899C13.1177 24.7884 19.8727 26.4745 22.872 23.4778C23.871 22.4789 24.2309 21.1618 24.3195 19.996L19.9288 19.3687L19.0864 21.0562C18.7682 21.6925 18.2192 22.1607 17.5398 22.3733C16.8604 22.5884 16.1066 22.5115 15.4755 22.1685C13.5976 21.1475 11.7419 19.726 9.96191 17.946C8.09711 16.0812 6.66396 14.2177 5.70026 12.4064C5.36512 11.7739 5.30122 11.0515 5.5177 10.3708C5.73417 9.69395 6.20232 9.14755 6.8374 8.82936L8.27968 8.10822L6.42792 3.78789Z" fill="white"/>
</svg>
