<svg width="95" height="95" viewBox="0 0 95 95" fill="none" xmlns="http://www.w3.org/2000/svg">
<path d="M47.5 0C21.269 0 0 21.269 0 47.5C0 73.731 21.269 95 47.5 95C73.731 95 95 73.731 95 47.5C95 21.269 73.731 0 47.5 0ZM47.5 86.942C25.7221 86.942 8.05804 69.2779 8.05804 47.5C8.05804 25.7221 25.7221 8.05804 47.5 8.05804C69.2779 8.05804 86.942 25.7221 86.942 47.5C86.942 69.2779 69.2779 86.942 47.5 86.942ZM52.5575 45.0402L49.8644 44.4146V30.1752C53.8934 30.7266 56.385 33.25 56.8092 36.346C56.8622 36.7701 57.2227 37.0776 57.6468 37.0776H62.4074C62.9057 37.0776 63.298 36.6429 63.2556 36.1445C62.6088 29.5391 57.1696 25.298 49.9068 24.5664V21.0993C49.9068 20.6328 49.5251 20.2511 49.0586 20.2511H46.0792C45.6127 20.2511 45.231 20.6328 45.231 21.0993V24.5982C37.7243 25.3298 31.8504 29.4754 31.8504 37.2154C31.8504 44.3828 37.1306 47.8393 42.6758 49.1646L45.2946 49.8326V64.9626C40.6083 64.3371 37.9788 61.8348 37.4381 58.4632C37.3744 58.0603 37.014 57.7634 36.6004 57.7634H31.702C31.2037 57.7634 30.8114 58.1875 30.8538 58.6858C31.3309 64.5173 35.7522 69.8822 45.1886 70.5714V73.9007C45.1886 74.3672 45.5703 74.7489 46.0368 74.7489H49.048C49.5145 74.7489 49.8962 74.3672 49.8962 73.8901L49.875 70.529C58.1769 69.7974 64.1144 65.3549 64.1144 57.3817C64.1038 50.0234 59.428 46.7366 52.5575 45.0402ZM45.284 43.3225C44.6903 43.1529 44.192 42.9939 43.6936 42.7924C40.1099 41.4989 38.4453 39.4102 38.4453 36.7171C38.4453 32.8683 41.361 30.6735 45.284 30.1752V43.3225ZM49.8644 64.9944V50.8186C50.1931 50.9141 50.49 50.9883 50.7974 51.0519C55.8125 52.5787 57.4983 54.6992 57.4983 57.9542C57.4983 62.0999 54.3811 64.5915 49.8644 64.9944Z" fill="white"/>
</svg>
