<svg width="106" height="106" viewBox="0 0 106 106" fill="none" xmlns="http://www.w3.org/2000/svg">
<path d="M68.1371 79.0941L68.8988 94.542L53.2731 83.6833L37.56 94.5523L38.3223 79.0941H31.7231L30.5857 102.163H38.1433L53.2645 91.7039L68.3157 102.163H75.8737L74.7363 79.0941H68.1371V79.0941ZM86.0639 31.9083L85.6119 22.0104L77.2669 16.6701L71.9256 8.3242L62.0275 7.87106L53.2297 3.3147L44.4319 7.87209L34.5338 8.32523L29.1925 16.6701L20.8474 22.0104L20.3955 31.9083L15.8379 40.7063L20.3955 49.5045L20.8486 59.4022L29.1925 64.7425L34.533 73.0885L44.4311 73.5407L53.2297 78.098L62.0275 73.5407L71.9256 73.0885L77.2661 64.7425L85.6117 59.403L86.0639 49.5053L90.6215 40.7071L86.0639 31.9083ZM79.5456 47.7578L79.1825 55.6907L72.4934 59.9709L68.2133 66.6599L60.2802 67.0224L53.2297 70.6749L46.1783 67.0224L38.2452 66.6599L33.9651 59.9709L27.2769 55.6907L26.9146 47.7578L23.2604 40.7063L26.9138 33.6562L27.2769 25.722L33.9651 21.4419L38.2452 14.7531L46.1783 14.3906L53.2297 10.7378L60.281 14.3904L68.2141 14.7529L72.4943 21.4417L79.1825 25.722L79.5448 33.6551L83.199 40.7063L79.5456 47.7578Z" fill="white"/>
<path d="M67.8538 34.2214L62.3253 28.6307L49.2462 41.6192L44.1575 36.5168L38.6055 42.0838L49.2227 52.7297L67.8538 34.2214Z" fill="white"/>
</svg>
