<?xml version="1.0" encoding="utf-8"?>
<!-- Generator: Adobe Illustrator 24.1.2, SVG Export Plug-In . SVG Version: 6.00 Build 0)  -->
<svg version="1.1" id="Layer_1" xmlns="http://www.w3.org/2000/svg" xmlns:xlink="http://www.w3.org/1999/xlink" x="0px" y="0px"
	 viewBox="0 0 2500 2273" style="enable-background:new 0 0 2500 2273;" xml:space="preserve">
<style type="text/css">
	.st0{fill:#fff;}
</style>
<path class="st0" d="M1227.1,1.1c-51.7,0-161.3,8-280.3,60.6C827.7,114.4,699,214.8,618.9,394.5c-60.5,135.4-42.6,332.6-32.8,490.1
	c0.8,11.6,1,21.7,1.6,32.8c-4.9,2.2-0.6,3.3-16.4,3.3c-23.8,0-55.5-7.8-95-26.2c-15.7-7.3-32.6-9.9-49.2-9.9
	c-30.1,0.2-59.6,8.8-85.2,24.7c-25.6,15.5-50.3,39.7-57.4,77c-4.3,23,0.6,57.4,22.9,85.2c22.3,27.9,57,50.6,111.5,72.1
	c11.9,4.7,24,9.2,36.1,13.1c24.6,7.8,53.5,16.2,75.4,27.9c21.9,11.7,34.8,25.4,39.3,36.1c4.9,11.4,6.3,29.3-9.8,62.3
	c-0.6,1.1-1.2,2.2-1.6,3.3c-0.2,0.8-1,1.4-1.7,3.3c-6.6,14.8-150.2,327.8-449.1,377c-38.3,6-65.9,40-63.9,78.7
	c0.6,11.3,4.3,23.3,8.2,32.8c14.6,34.2,45.7,59.4,96.7,81.9c47.1,20.9,120.5,39.3,218,55.8c2.5,6.8,5.8,19.4,9.9,37.7
	c0,0.4-0.2,1.3,0,1.7c3.7,17,7.1,35.7,13.1,55.7c5.9,20.5,21.1,40.6,39.3,50.8c18.2,10.2,35.5,11.5,45.9,11.5
	c21.7,0,39.8-4.5,59-8.2c31.7-6.1,70.1-13.1,119.6-13.1c27.4,0,56.1,1.9,85.2,6.6c49.8,8.2,98.8,40.5,157.4,81.9
	c84.8,60.1,186.7,132.8,339.3,132.8c2.6,0,5.5-1.4,8.2-1.6c2.6,0.2,5.5,0,8.2,0c4.3,0.2,8.8,1.6,13.1,1.6
	c152.6,0,254.3-72.7,339.3-132.8c58.4-41.4,107.5-73.7,157.4-82c28.2-4.4,56.7-6.6,85.2-6.5c47.9,0,85.9,6.1,121.3,13.1
	c22.6,4.5,39.7,6.5,57.3,6.5h3.3c16.2,0,34.8-4.5,50.8-16.4c14.8-11.1,25.7-26.6,31.2-44.3c6-20.1,9.2-39.3,13.1-57.3
	c2.6-12.8,5.9-25.4,9.9-37.8c97.6-16.4,170.9-34.8,218-55.7c51-22.6,82.1-47.9,96.7-81.9c4.3-9.9,7.6-21.5,8.2-32.8
	c1.8-38.7-25.7-72.6-63.9-78.7c-150.8-24.8-261.4-115.6-336-203.3c-74.2-87.3-111-170.7-113.1-175.4v-1.6c-0.5-1.1-1-2.2-1.7-3.3
	c-16.4-33-16.4-50.6-11.4-62.3c4.5-10.6,17.4-24.4,39.3-36.1c21.9-11.6,50.6-20.1,75.4-27.9c12.3-3.9,24.6-8.6,36.1-13.1
	c47.7-18.9,80.5-38.5,103.2-62.3c22.8-23.8,33.2-53.2,32.8-78.7c-1-53.7-41-89.3-86.9-106.5l-1.6-1.7c-0.4-0.2-1.2,0.2-1.6,0
	c-18.8-7.6-38.8-11.5-59-11.5c-19.2-0.6-38.3,3.3-55.8,11.5c-35.7,16.8-65.6,25-88.5,26.2h-1.7c-1.4,0-0.4,0.2-1.6,0
	c-6.8-0.8-4.7-2.1-8.2-3.3c0.6-9,1-17,1.6-26.2v-6.6c10.1-157.5,27.7-354.4-32.8-490.1c-80.1-179.7-208.6-281.7-327.8-334.4
	c-88.4-38.6-183.8-58.7-280.3-59h-6.6L1227.1,1.1z M1227.1,106h45.9c42,0,137.3,6.6,237.6,50.8c100.4,44.3,206.1,124.8,275.4,280.3
	c39.3,88.1,33,283.6,23,440.9v6.6c-1.4,21.9-3.9,43.3-4.9,64c-0.4,14.8,5.6,29.2,16.4,39.3c8.2,8.4,42.6,35.4,100,37.7h3.3
	c42.5-1.6,86.9-14.5,132.8-36.1c3.7-1.1,7.6-1.6,11.5-1.6c6.6,0,15.2,1.6,19.7,3.3c0.4,0.2,1.2-0.2,1.6,0c1.1,0.6,2.2,1.1,3.3,1.6
	c12.3,4.3,18,9.2,19.6,11.5c0.4,0.4-0.2,1.4,0,1.6c-0.6,1-1.2,1-3.3,3.3c-7.6,8-28.5,22.3-67.2,37.7c-9.2,3.6-18.5,6.9-27.9,9.9
	c-24.8,7.8-60,18.4-93.4,36c-33.4,17.6-68.7,43.6-86.9,86.9c-19.5,45.6-11.3,95.9,11.5,144.2c0.2,0.8-0.2,1,0,1.6
	c0.8,2.3,1.6,3.5,1.6,3.3c4.7,10.9,44.5,103.5,129.5,203.3c76.4,89.7,192.6,182.5,347.5,222.9c-6.6,4.3-2.1,4.1-14.8,9.9
	c-37.7,16.6-102.4,34.4-208.1,50.8c-29.9,4.5-52.2,32.8-60.7,52.5c-8.4,19.7-12.7,39.2-18,64c-2.5,11.4-5.6,21.9-8.2,32.7
	c-7.1-0.6-13.1-0.6-26.2-3.3c-46.4-9.6-93.6-14.5-140.9-14.8c-33.6,0-67.2,2.5-101.7,8.2c-80.5,13.5-143.2,58.6-201.6,100
	c-85.2,60.1-157.8,113.1-278.7,113.1c-4.9,0-9.8,0.2-14.7,0c-2.2-0.2-4.4-0.2-6.6,0c-2.1,0.2-5.8,0-8.2,0
	c-120.9,0-193.9-53-278.7-113.1c-58.6-41.4-121.1-86.7-201.6-100c-33.6-5.6-67.6-8.3-101.7-8.2c-47.4,0.3-94.6,5.2-141,14.8
	c-12.7,2.5-17.4,3.9-24.5,4.9c-2.9-11.4-7.2-22.3-9.9-34.4c-4.9-22.6-8.2-42.4-16.4-62.3c-4.6-11.5-11.2-22.1-19.7-31.2
	c-9.9-10.5-24.4-18.9-41-21.3c-105.5-16.4-172.2-35.9-209.8-52.5c-13.1-5.8-8.2-5.4-14.8-9.9c326.8-84.5,469-407.7,477-426.2
	l1.6-3.3c0.2-0.6-0.2-0.8,0-1.7c22.8-48.3,30.9-98.5,11.5-144.2c-18.5-43.2-53.5-69.2-86.9-86.9c-33.4-17.6-67-28.3-91.8-36
	c-12.1-3.9-23.4-7.3-29.5-9.9c-44.1-17.4-63.3-34-68.8-41c0,1-1.3-3.5,6.6-8.2c8.6-5.1,23.8-8.2,31.2-8.2c4.1,0,3.9,0.2,3.3,0
	c49.2,23,95.9,36.1,141,36.1c62.3,0,99.6-27.1,109.8-37.7c10.2-10.5,15.6-24.7,14.7-39.3c-1.2-22.9-3.5-46.3-4.9-70.4
	c-9.9-157.6-16.4-352.9,22.9-441c69.2-155.3,173.6-236,273.8-280.3C1063.3,124.2,1144.7,106.9,1227.1,106L1227.1,106z"/>
</svg>
