<svg width="109" height="109" viewBox="0 0 109 109" fill="none" xmlns="http://www.w3.org/2000/svg">
<g clip-path="url(#clip0_117_320)">
<path d="M84.8454 90.3695H48.6975V66.2709H42.6728V90.3695H24.5989V66.2709H18.5742V90.3695C18.5742 91.9673 19.209 93.4997 20.3388 94.6296C21.4686 95.7594 23.001 96.3942 24.5989 96.3942H84.8454C86.4433 96.3942 87.9757 95.7594 89.1055 94.6296C90.2354 93.4997 90.8701 91.9673 90.8701 90.3695V66.2709H84.8454V90.3695Z" fill="white"/>
<path d="M102.287 39.9735L89.9971 15.3929C89.4983 14.3891 88.7294 13.5444 87.7768 12.9537C86.8243 12.363 85.7258 12.0498 84.605 12.0492H24.8404C23.7196 12.0498 22.6211 12.363 21.6685 12.9537C20.716 13.5444 19.9471 14.3891 19.4483 15.3929L7.15803 39.9735C6.7384 40.8154 6.52175 41.7439 6.52544 42.6846V51.9625C6.52269 53.3702 7.01295 54.7344 7.91111 55.8183C9.23852 57.34 10.8779 58.558 12.718 59.3896C14.558 60.2213 16.5555 60.6471 18.5748 60.6381C21.8695 60.6432 25.0639 59.5039 27.6117 57.4149C30.1596 59.505 33.3532 60.6474 36.6487 60.6474C39.9442 60.6474 43.1379 59.505 45.6857 57.4149C48.2336 59.505 51.4272 60.6474 54.7227 60.6474C58.0182 60.6474 61.2118 59.505 63.7597 57.4149C66.3075 59.505 69.5012 60.6474 72.7967 60.6474C76.0922 60.6474 79.2858 59.505 81.8337 57.4149C84.6778 59.7501 88.3165 60.8917 91.9849 60.5995C95.6533 60.3074 99.0655 58.6044 101.504 55.8485C102.413 54.7687 102.914 53.4041 102.92 51.9927V42.6846C102.924 41.7439 102.707 40.8154 102.287 39.9735ZM90.8706 54.6134C89.584 54.6104 88.3167 54.2999 87.1744 53.7078C86.0321 53.1156 85.0479 52.2591 84.3038 51.2095L81.8337 47.8357L79.3937 51.2095C78.6354 52.243 77.6444 53.0834 76.5009 53.6627C75.3574 54.242 74.0936 54.5439 72.8117 54.5439C71.5299 54.5439 70.266 54.242 69.1226 53.6627C67.9791 53.0834 66.9881 52.243 66.2298 51.2095L63.7597 47.8357L61.3197 51.2095C60.5614 52.243 59.5704 53.0834 58.4269 53.6627C57.2834 54.242 56.0196 54.5439 54.7378 54.5439C53.4559 54.5439 52.1921 54.242 51.0486 53.6627C49.9051 53.0834 48.9141 52.243 48.1558 51.2095L45.6857 47.8357L43.2457 51.2095C42.4875 52.243 41.4964 53.0834 40.353 53.6627C39.2095 54.242 37.9456 54.5439 36.6638 54.5439C35.3819 54.5439 34.1181 54.242 32.9746 53.6627C31.8311 53.0834 30.8401 52.243 30.0818 51.2095L27.6117 47.8357L25.1416 51.2095C24.3975 52.2591 23.4133 53.1156 22.271 53.7078C21.1287 54.2999 19.8614 54.6104 18.5748 54.6134C17.4395 54.6272 16.3145 54.3978 15.2753 53.9405C14.2361 53.4833 13.3069 52.8088 12.5501 51.9625V42.6846L24.8404 18.0739H84.605L96.8953 42.6545V51.8722C96.143 52.7304 95.2168 53.4186 94.178 53.8913C93.1393 54.3639 92.0118 54.6101 90.8706 54.6134V54.6134Z" fill="white"/>
</g>
<defs>
<clipPath id="clip0_117_320">
<rect width="108.444" height="108.444" fill="white" transform="translate(0.5)"/>
</clipPath>
</defs>
</svg>
