<svg width="47" height="38" viewBox="0 0 47 38" fill="none" xmlns="http://www.w3.org/2000/svg">
<path d="M46.2873 4.85226C44.6208 5.5907 42.8306 6.08965 40.9485 6.31518C42.8904 5.15321 44.3433 3.32441 45.0359 1.17001C43.2115 2.25371 41.2147 3.01651 39.1324 3.42526C37.7321 1.93014 35.8773 0.939149 33.8561 0.606146C31.8349 0.273143 29.7603 0.616759 27.9544 1.58365C26.1485 2.55053 24.7123 4.08659 23.8688 5.95335C23.0253 7.8201 22.8218 9.91311 23.2897 11.9074C19.5929 11.7218 15.9764 10.7609 12.6749 9.08715C9.37345 7.41339 6.46083 5.06414 4.12606 2.19186C3.32774 3.56896 2.86871 5.1656 2.86871 6.86602C2.86782 8.39679 3.24478 9.90411 3.96615 11.2542C4.68753 12.6044 5.731 13.7556 7.004 14.6057C5.52766 14.5588 4.08389 14.1598 2.79287 13.4422V13.5619C2.79272 15.7089 3.53537 17.7898 4.89481 19.4515C6.25425 21.1133 8.14674 22.2535 10.2512 22.6787C8.88162 23.0494 7.44575 23.104 6.05201 22.8384C6.64575 24.6857 7.80231 26.3012 9.35978 27.4585C10.9172 28.6159 12.7976 29.2572 14.7377 29.2928C11.4443 31.8782 7.37699 33.2806 3.19003 33.2744C2.44835 33.2746 1.7073 33.2313 0.970703 33.1447C5.22071 35.8773 10.168 37.3275 15.2207 37.3219C32.3247 37.3219 41.675 23.1557 41.675 10.8696C41.675 10.4704 41.665 10.0673 41.6471 9.66812C43.4658 8.35284 45.0358 6.72411 46.2833 4.85825L46.2873 4.85226Z" fill="white"/>
</svg>
