<svg width="46" height="38" viewBox="0 0 46 38" fill="none" xmlns="http://www.w3.org/2000/svg">
<path d="M45.9846 4.85226C44.3181 5.5907 42.5278 6.08965 40.6458 6.31518C42.5877 5.15321 44.0405 3.32441 44.7332 1.17001C42.9087 2.25371 40.9119 3.01651 38.8296 3.42526C37.4293 1.93014 35.5746 0.939149 33.5534 0.606146C31.5322 0.273143 29.4576 0.616759 27.6516 1.58365C25.8457 2.55053 24.4095 4.08659 23.5661 5.95335C22.7226 7.8201 22.519 9.91311 22.987 11.9074C19.2901 11.7218 15.6736 10.7609 12.3722 9.08715C9.07072 7.41339 6.15809 5.06414 3.82333 2.19186C3.02501 3.56896 2.56597 5.1656 2.56597 6.86602C2.56508 8.39679 2.94205 9.90411 3.66342 11.2542C4.38479 12.6044 5.42827 13.7556 6.70127 14.6057C5.22493 14.5588 3.78116 14.1598 2.49013 13.4422V13.5619C2.48998 15.7089 3.23263 17.7898 4.59207 19.4515C5.95151 21.1133 7.844 22.2535 9.94843 22.6787C8.57888 23.0494 7.14301 23.104 5.74927 22.8384C6.34302 24.6857 7.49958 26.3012 9.05704 27.4585C10.6145 28.6159 12.4949 29.2572 14.435 29.2928C11.1416 31.8782 7.07426 33.2806 2.8873 33.2744C2.14562 33.2746 1.40457 33.2313 0.667969 33.1447C4.91797 35.8773 9.86529 37.3275 14.918 37.3219C32.022 37.3219 41.3723 23.1557 41.3723 10.8696C41.3723 10.4704 41.3623 10.0673 41.3443 9.66812C43.1631 8.35284 44.733 6.72411 45.9806 4.85825L45.9846 4.85226Z" fill="#312783"/>
</svg>
