<svg width="26" height="26" viewBox="0 0 26 26" fill="none" xmlns="http://www.w3.org/2000/svg">
<path fill-rule="evenodd" clip-rule="evenodd" d="M21.8209 3.89794C20.6428 2.71202 19.241 1.77169 17.6968 1.1314C16.1526 0.491112 14.4967 0.163606 12.8251 0.167855C5.81542 0.167855 0.109083 5.87277 0.10625 12.8853C0.10625 15.1264 0.691333 17.3138 1.80342 19.2433L0 25.8322L6.74192 24.0628C8.60681 25.0779 10.6961 25.6103 12.8194 25.6112H12.8251C19.8333 25.6112 25.5397 19.9063 25.5425 12.8938C25.5473 11.2228 25.2209 9.56743 24.5821 8.02336C23.9433 6.47929 23.0049 5.07713 21.8209 3.89794ZM12.8251 23.4649H12.8208C10.9275 23.4651 9.06898 22.9557 7.44033 21.9902L7.055 21.7607L3.05433 22.8104L4.12108 18.9104L3.87033 18.5109C2.81178 16.8256 2.25141 14.8754 2.25392 12.8853C2.25675 7.05711 6.99833 2.31552 12.8293 2.31552C14.218 2.31244 15.5935 2.5848 16.8763 3.11686C18.159 3.64892 19.3234 4.4301 20.3022 5.41519C21.2863 6.39558 22.0663 7.56129 22.5971 8.84494C23.1279 10.1286 23.399 11.5047 23.3948 12.8938C23.392 18.7219 18.6504 23.4649 12.8251 23.4649ZM18.6235 15.5472C18.3047 15.3871 16.7436 14.6193 16.4517 14.513C16.1613 14.4068 15.9502 14.3544 15.7378 14.6717C15.5252 14.989 14.9161 15.7044 14.7305 15.9169C14.5449 16.1294 14.3593 16.1549 14.042 15.9963C13.7247 15.8376 12.7004 15.5019 11.4863 14.4195C10.5414 13.5766 9.90392 12.5368 9.71833 12.218C9.53275 11.8993 9.6985 11.7279 9.85858 11.5692C10.0017 11.4275 10.1759 11.198 10.3346 11.0124C10.4932 10.8269 10.5457 10.6951 10.6519 10.4826C10.7582 10.2701 10.7057 10.0845 10.625 9.92585C10.5457 9.76577 9.90958 8.20177 9.64467 7.56569C9.38825 6.94944 9.12617 7.0316 8.93067 7.02311C8.72819 7.01482 8.52556 7.01104 8.32292 7.01177C8.16178 7.01588 8.00323 7.05323 7.8572 7.12149C7.71118 7.18975 7.58083 7.28744 7.47433 7.40844C7.1825 7.72719 6.36225 8.49502 6.36225 10.059C6.36225 11.623 7.50125 13.1346 7.65992 13.3471C7.81858 13.5596 9.90108 16.7684 13.0886 18.1454C13.8479 18.4726 14.4401 18.6681 14.9005 18.8154C15.6612 19.0577 16.354 19.0223 16.9022 18.9415C17.5128 18.8509 18.7822 18.1737 19.0471 17.4314C19.312 16.689 19.312 16.0529 19.2327 15.9198C19.1533 15.7866 18.9394 15.7059 18.6235 15.5472Z" fill="white"/>
</svg>
